<?xml version="1.0" encoding="UTF-8" standalone="no" ?>
<!DOCTYPE svg PUBLIC "-//W3C//DTD SVG 1.1//EN" "http://www.w3.org/Graphics/SVG/1.1/DTD/svg11.dtd">
<svg xmlns="http://www.w3.org/2000/svg" xmlns:xlink="http://www.w3.org/1999/xlink" version="1.1" width="512" height="512" viewBox="0 0 512 512" xml:space="preserve">
<desc>Created with Fabric.js 3.6.6</desc>
<defs>
</defs>
<g transform="matrix(1 0 0 1 0.5 31.25)"  >
<path style="stroke: rgb(130,130,130); stroke-width: 1; stroke-dasharray: none; stroke-linecap: round; stroke-dashoffset: 0; stroke-linejoin: round; stroke-miterlimit: 10; fill: none; fill-rule: nonzero; opacity: 1;"  transform=" translate(-313, -212)" d="M 312.999 212 L 313.001 212" stroke-linecap="round" />
</g>
<g transform="matrix(1 0 0 1 255.24 255.76)"  >
<g style=""   >
		<g transform="matrix(0.64 0 0 0.64 0.49 0)"  >
<g style=""   >
		<g transform="matrix(1 0 0 1 0 0)"  >
<path style="stroke: rgb(255,138,5); stroke-width: 16; stroke-dasharray: none; stroke-linecap: butt; stroke-dashoffset: 0; stroke-linejoin: miter; stroke-miterlimit: 4; fill: rgb(255,255,255); fill-rule: nonzero; opacity: 1;"  transform=" translate(-400, -400)" d="M 374.2887343802472 29.173683175304006 C 390.19888443002753 19.989608195049357 409.8011766051287 19.989608195049357 425.71132665490904 29.176254304917734 L 708.2887557226317 192.32214168512405 C 724.198905772412 201.50621666537864 734.0000518599626 218.48338550485835 734.0000518599626 236.85410659498143 V 563.145881355394 C 734.0000518599626 581.516602445517 724.198905772412 598.4937712849967 708.2887557226317 607.680417394865 L 425.71132665490904 770.8263047750713 C 409.8011766051287 780.0103797553259 390.19888443002753 780.0103797553259 374.2887343802472 770.8237336454577 L 91.71130531252464 607.6778462652513 C 75.80115526274426 598.4937712849967 66.00000917519367 581.516602445517 66.00000917519367 563.145881355394 V 236.85410659498143 C 66.00000917519367 218.48338550485835 75.80115526274426 201.50621666537864 91.71130531252464 192.31957055551038 L 374.2887343802472 29.173683175304006 Z" stroke-linecap="round" />
</g>
		<g transform="matrix(1 0 0 1 18 0)"  >
<path style="stroke: rgb(255,138,5); stroke-width: 16; stroke-dasharray: none; stroke-linecap: butt; stroke-dashoffset: 0; stroke-linejoin: miter; stroke-miterlimit: 4; fill: rgb(255,255,255); fill-rule: nonzero; opacity: 0.25;"  transform=" translate(-418, -400)" d="M 392.2887343802472 29.173683175304006 C 408.19888443002753 19.989608195049357 427.8011766051287 19.989608195049357 443.71132665490904 29.176254304917734 L 726.2887557226317 192.32214168512405 C 742.198905772412 201.50621666537864 752.0000518599626 218.48338550485835 752.0000518599626 236.85410659498143 V 563.145881355394 C 752.0000518599626 581.516602445517 742.198905772412 598.4937712849967 726.2887557226317 607.680417394865 L 443.71132665490904 770.8263047750713 C 427.8011766051287 780.0103797553259 408.19888443002753 780.0103797553259 392.2887343802472 770.8237336454577 L 109.71130531252464 607.6778462652513 C 93.80115526274426 598.4937712849967 84.00000917519367 581.516602445517 84.00000917519367 563.145881355394 V 236.85410659498143 C 84.00000917519367 218.48338550485835 93.80115526274426 201.50621666537864 109.71130531252464 192.31957055551038 L 392.2887343802472 29.173683175304006 Z" stroke-linecap="round" />
</g>
		<g transform="matrix(1 0 0 1 -18 0)"  >
<path style="stroke: rgb(255,138,5); stroke-width: 16; stroke-dasharray: none; stroke-linecap: butt; stroke-dashoffset: 0; stroke-linejoin: miter; stroke-miterlimit: 4; fill: rgb(255,255,255); fill-rule: nonzero; opacity: 0.25;"  transform=" translate(-382, -400)" d="M 356.2887343802472 29.173683175304006 C 372.19888443002753 19.989608195049357 391.8011766051287 19.989608195049357 407.71132665490904 29.176254304917734 L 690.2887557226317 192.32214168512405 C 706.198905772412 201.50621666537864 716.0000518599626 218.48338550485835 716.0000518599626 236.85410659498143 V 563.145881355394 C 716.0000518599626 581.516602445517 706.198905772412 598.4937712849967 690.2887557226317 607.680417394865 L 407.71132665490904 770.8263047750713 C 391.8011766051287 780.0103797553259 372.19888443002753 780.0103797553259 356.2887343802472 770.8237336454577 L 73.71130531252464 607.6778462652513 C 57.80115526274426 598.4937712849967 48.00000917519367 581.516602445517 48.00000917519367 563.145881355394 V 236.85410659498143 C 48.00000917519367 218.48338550485835 57.80115526274426 201.50621666537864 73.71130531252464 192.31957055551038 L 356.2887343802472 29.173683175304006 Z" stroke-linecap="round" />
</g>
		<g transform="matrix(1 0 0 1 0 0)"  >
<path style="stroke: rgb(255,138,5); stroke-width: 16; stroke-dasharray: none; stroke-linecap: butt; stroke-dashoffset: 0; stroke-linejoin: miter; stroke-miterlimit: 4; fill: rgb(255,255,255); fill-rule: nonzero; opacity: 1;"  transform=" translate(-400, -400)" d="M 374.2887343802472 29.173683175304006 C 390.19888443002753 19.989608195049357 409.8011766051287 19.989608195049357 425.71132665490904 29.176254304917734 L 708.2887557226317 192.32214168512405 C 724.198905772412 201.50621666537864 734.0000518599626 218.48338550485835 734.0000518599626 236.85410659498143 V 563.145881355394 C 734.0000518599626 581.516602445517 724.198905772412 598.4937712849967 708.2887557226317 607.680417394865 L 425.71132665490904 770.8263047750713 C 409.8011766051287 780.0103797553259 390.19888443002753 780.0103797553259 374.2887343802472 770.8237336454577 L 91.71130531252464 607.6778462652513 C 75.80115526274426 598.4937712849967 66.00000917519367 581.516602445517 66.00000917519367 563.145881355394 V 236.85410659498143 C 66.00000917519367 218.48338550485835 75.80115526274426 201.50621666537864 91.71130531252464 192.31957055551038 L 374.2887343802472 29.173683175304006 Z" stroke-linecap="round" />
</g>
</g>
</g>
		<g transform="matrix(9.4 0 0 6.98 0 5.86)" style=""  >
		<text xml:space="preserve" font-family="'Open Sans', sans-serif" font-size="20" font-style="normal" font-weight="normal" style="stroke: none; stroke-width: 1; stroke-dasharray: none; stroke-linecap: butt; stroke-dashoffset: 0; stroke-linejoin: miter; stroke-miterlimit: 4; fill: rgb(0,0,0); fill-rule: nonzero; opacity: 1; white-space: pre;" ><tspan x="-21.14" y="6.28" style="font-family: 'Dancing Script', cursive; ">R</tspan><tspan x="-3.34" y="6.28" style="font-family: 'Dancing Script', cursive; white-space: pre; "> </tspan><tspan x="7.86" y="6.28" style="font-family: 'Dancing Script', cursive; ">D</tspan></text>
</g>
		<g transform="matrix(3.95 0 0 3.95 0.19 -1.8)"  >
<g style=""   >
		<g transform="matrix(0.13 0 0 0.13 0.61 4.21)"  >
<path style="stroke: none; stroke-width: 1; stroke-dasharray: none; stroke-linecap: butt; stroke-dashoffset: 0; stroke-linejoin: miter; stroke-miterlimit: 4; fill: rgb(255,138,5); fill-rule: nonzero; opacity: 0.2;"  transform=" translate(-128, -160)" d="M 248 160 a 40 40 0 1 1 -40 -40 A 40 40 0 0 1 248 160 Z M 48 120 a 40 40 0 1 0 40 40 A 40 40 0 0 0 48 120 Z" stroke-linecap="round" />
</g>
		<g transform="matrix(0.13 0 0 0.13 0.63 0.9)"  >
<path style="stroke: none; stroke-width: 1; stroke-dasharray: none; stroke-linecap: butt; stroke-dashoffset: 0; stroke-linejoin: miter; stroke-miterlimit: 4; fill: rgb(0,0,0); fill-rule: nonzero; opacity: 1;"  transform=" translate(-127.89, -132.12)" d="M 208 112 a 47.81 47.81 0 0 0 -16.93 3.09 L 165.93 72 H 192 a 8 8 0 0 1 8 8 a 8 8 0 0 0 16 0 a 24 24 0 0 0 -24 -24 H 152 a 8 8 0 0 0 -6.91 12 l 11.65 20 H 99.26 L 82.91 60 A 8 8 0 0 0 76 56 H 48 a 8 8 0 0 0 0 16 H 71.41 L 85.12 95.51 L 69.41 117.06 a 48.13 48.13 0 1 0 12.92 9.44 l 11.59 -15.9 L 125.09 164 A 8 8 0 1 0 138.91 156 l -30.32 -52 h 57.48 l 11.19 19.17 A 48 48 0 1 0 208 112 Z M 80 160 a 32 32 0 1 1 -20.21 -29.74 l -18.25 25 a 8 8 0 1 0 12.92 9.42 l 18.25 -25 A 31.88 31.88 0 0 1 80 160 Z m 128 32 a 32 32 0 0 1 -22.51 -54.72 L 201.09 164 A 8 8 0 1 0 214.91 156 L 199.3 129.21 A 32 32 0 1 1 208 192 Z" stroke-linecap="round" />
</g>
</g>
</g>
</g>
</g>
</svg>